{
  "accessors": [
    {
      "bufferView": 0,
      "componentType": 5126,
      "count": 41203,
      "max": [
        220.028076171875,
        215.1064453125,
        214.668823242188
      ],
      "min": [
        -220.028076171875,
        -215.10595703125,
        -214.668762207031
      ],
      "type": "VEC3"
    },
    {
      "bufferView": 1,
      "componentType": 5126,
      "count": 41203,
      "type": "VEC3"
    },
    {
      "bufferView": 2,
      "componentType": 5126,
      "count": 41203,
      "type": "VEC2"
    },
    {
      "bufferView": 3,
      "componentType": 5126,
      "count": 41203,
      "type": "VEC4"
    },
    {
      "bufferView": 4,
      "componentType": 5125,
      "count": 248700,
      "type": "SCALAR"
    }
  ],
  "asset": {
    "generator": "Yocto/gltf",
    "version": "2.0"
  },
  "bufferViews": [
    {
      "buffer": 0,
      "byteLength": 494436,
      "target": 34962
    },
    {
      "buffer": 0,
      "byteLength": 494436,
      "byteOffset": 494436,
      "target": 34962
    },
    {
      "buffer": 0,
      "byteLength": 329624,
      "byteOffset": 988872,
      "target": 34962
    },
    {
      "buffer": 0,
      "byteLength": 659248,
      "byteOffset": 1318496,
      "target": 34962
    },
    {
      "buffer": 0,
      "byteLength": 994800,
      "byteOffset": 1977744,
      "target": 34962
    }
  ],
  "buffers": [
    {
      "byteLength": 2972544,
      "uri": "2020.04.19-14.32.22.bin"
    }
  ],
  "materials": [
    {
      "alphaMode": "OPAQUE",
      "name": "MAT_Clay",
      "pbrMetallicRoughness": {
        "metallicFactor": 0.0,
        "roughnessFactor": 0.899999976158142
      }
    },
    {
      "alphaMode": "OPAQUE",
      "name": "MAT_Metal",
      "pbrMetallicRoughness": {
        "metallicFactor": 0.899999976158142,
        "roughnessFactor": 0.5
      }
    },
    {
      "alphaMode": "OPAQUE",
      "emissiveFactor": [
        0.25,
        0.25,
        0.25
      ],
      "name": "MAT_Glow",
      "pbrMetallicRoughness": {
        "metallicFactor": 0.0,
        "roughnessFactor": 0.899999976158142
      }
    }
  ],
  "meshes": [
    {
      "name": "1_Mesh",
      "primitives": [
        {
          "attributes": {
            "COLOR_0": 3,
            "NORMAL": 1,
            "POSITION": 0,
            "TEXCOORD_0": 2
          },
          "indices": 4,
          "material": 0,
          "mode": 4
        }
      ]
    }
  ],
  "nodes": [
    {
      "mesh": 0,
      "name": "1_Node"
    }
  ],
  "scene": 0,
  "scenes": [
    {
      "name": "1_Scene",
      "nodes": [
        0
      ]
    }
  ]
}